<svg xmlns="http://www.w3.org/2000/svg" xmlns:xlink="http://www.w3.org/1999/xlink" width="16" height="16" viewBox="0 0 16 16"><defs><clipPath id="b"><rect width="16" height="16"/></clipPath></defs><g id="a" clip-path="url(#b)"><path d="M12,0" transform="translate(2 14)" fill="#fff" stroke="#000" stroke-width="1"/><path d="M12,0" transform="translate(2 8)" fill="#fff" stroke="#000" stroke-width="1"/><g fill="#fff" stroke="#000" stroke-width="1"><rect width="4" height="4" stroke="none"/><rect x="0.5" y="0.5" width="3" height="3" fill="none"/></g><rect width="4" height="4" transform="translate(0 12)"/><g transform="translate(0 6)" fill="#fff" stroke="#000" stroke-width="1"><rect width="4" height="4" stroke="none"/><rect x="0.5" y="0.5" width="3" height="3" fill="none"/></g><g transform="translate(12)" fill="#fff" stroke="#000" stroke-width="1"><rect width="4" height="4" stroke="none"/><rect x="0.5" y="0.5" width="3" height="3" fill="none"/></g><g transform="translate(12 12)" fill="#fff" stroke="#000" stroke-width="1"><rect width="4" height="4" stroke="none"/><rect x="0.5" y="0.5" width="3" height="3" fill="none"/></g><rect width="4" height="4" transform="translate(12 6)"/><rect width="4" height="4" transform="translate(6)"/><g transform="translate(6 12)" fill="#fff" stroke="#000" stroke-width="1"><rect width="4" height="4" stroke="none"/><rect x="0.5" y="0.5" width="3" height="3" fill="none"/></g><g transform="translate(6 6)" fill="#fff" stroke="#000" stroke-width="1"><rect width="4" height="4" stroke="none"/><rect x="0.5" y="0.5" width="3" height="3" fill="none"/></g></g></svg>